<svg width="142" height="141" viewBox="0 0 142 141" fill="none" xmlns="http://www.w3.org/2000/svg">
<g clip-path="url(#clip0_11387_12130)">
<path d="M0 141H71V0H0V141ZM44.375 17.625H62.125V35.25H44.375V17.625ZM44.375 52.875H62.125V70.5H44.375V52.875ZM44.375 88.125H62.125V105.75H44.375V88.125ZM8.875 17.625H26.625V35.25H8.875V17.625ZM8.875 52.875H26.625V70.5H8.875V52.875ZM8.875 88.125H26.625V105.75H8.875V88.125ZM79.875 44.0625H142V52.875H79.875V44.0625ZM79.875 141H97.625V105.75H124.25V141H142V61.6875H79.875V141Z" fill="black"/>
</g>
<defs>
<clipPath id="clip0_11387_12130">
<rect width="142" height="141" fill="white"/>
</clipPath>
</defs>
</svg>
