<svg width="142" height="141" viewBox="0 0 142 141" fill="none" xmlns="http://www.w3.org/2000/svg">
<path d="M138.773 3.20455C141.731 6.67614 142.134 11.6165 139.983 18.0256C137.831 24.4347 134.201 30.1761 129.091 35.25L112.854 51.3729L128.99 121.072C129.326 122.34 128.923 123.442 127.78 124.376L114.871 133.99C114.4 134.391 113.761 134.591 112.954 134.591C112.685 134.591 112.45 134.558 112.248 134.491C111.24 134.29 110.534 133.756 110.131 132.889L81.9928 82.0163L55.872 107.953L61.2172 127.381C61.5534 128.516 61.2844 129.55 60.4104 130.485L50.7286 140.099C50.1235 140.7 49.3503 141 48.409 141H48.2073C47.1988 140.866 46.3919 140.433 45.7868 139.698L26.7257 114.462L1.31097 95.5355C0.571387 95.0682 0.134361 94.3004 -0.000108955 93.2323C-0.0673438 92.3644 0.235213 91.5298 0.907561 90.7287L10.5894 81.0149C11.1945 80.4141 11.9677 80.1136 12.909 80.1136C13.3124 80.1136 13.5813 80.147 13.7158 80.2138L33.2811 85.5213L59.4019 59.5845L8.16893 31.6449C7.22764 31.1108 6.65614 30.3097 6.45444 29.2415C6.31997 28.1733 6.62252 27.272 7.36211 26.5376L20.2712 13.7195C21.2125 12.8516 22.221 12.5845 23.2968 12.9183L90.3635 28.8409L106.5 12.8182C111.61 7.74432 117.392 4.13921 123.846 2.00285C130.301 -0.133517 135.276 0.267051 138.773 3.20455Z" fill="black"/>
</svg>
